<svg width="16" height="15" viewBox="0 0 16 15" fill="none" xmlns="http://www.w3.org/2000/svg">
<g clip-path="url(#clip0_74_150)">
<path d="M14.5867 0.697026C14.3644 0.529378 14.0711 0.43232 13.7333 0.414673H9.24444C9.09333 0.43232 8.97778 0.547025 8.97778 0.688202C8.98667 0.847025 9.09333 0.952908 9.24444 0.970555H13.6978C14.2311 0.970555 14.5867 1.3235 14.5867 1.84408V5.5235C14.5867 6.04408 14.2311 6.39703 13.7067 6.39703H7.02222C6.94222 6.39703 6.89778 6.37056 6.85333 6.29997C6.50667 5.69114 5.64444 5.69114 5.29778 6.29114C5.25333 6.37056 5.20889 6.39703 5.11111 6.39703H2.32C1.76 6.39703 1.41333 6.05291 1.41333 5.4882V1.8882C1.41333 1.30585 1.75111 0.970555 2.33778 0.970555H6.70222C6.89778 0.970555 7.02222 0.855849 7.02222 0.697026C7.02222 0.538202 6.90667 0.423496 6.72889 0.414673H2.23111C1.92889 0.423496 1.64444 0.520555 1.41333 0.697026C1.19111 0.855849 1.01333 1.09408 0.924444 1.36761C0.897777 1.44703 0.879999 1.52644 0.853333 1.60585V5.76173C0.897777 5.88526 0.924444 6.00879 0.977777 6.1235C1.23556 6.66173 1.67111 6.94408 2.26667 6.95291H5.20889C5.48444 8.02938 5.76889 9.10585 6.05333 10.1735C6.04444 10.1823 6.03555 10.1911 6.02667 10.1911C5.93778 10.1029 5.84 10.0147 5.74222 9.92644C5.2 9.44114 4.33778 9.66173 4.10667 10.35C4.01778 10.6323 4.03555 10.9058 4.18667 11.1617C4.51555 11.7264 4.83555 12.2911 5.19111 12.8382C5.84889 13.8529 6.8 14.4176 8 14.5676C8.03555 14.5764 8.07111 14.5853 8.11555 14.5941H8.75556C8.95111 14.5588 9.14667 14.5323 9.34222 14.4882C11.0933 14.0735 12.24 12.3441 11.8756 10.597C11.7156 9.82056 11.4756 9.06173 11.2533 8.30291C11.1556 7.97644 10.9067 7.79114 10.5689 7.72056C10.2756 7.65879 10.0178 7.76467 9.79556 7.94114C9.61778 7.76467 9.40444 7.65879 9.15555 7.64997C8.90667 7.64114 8.69333 7.7382 8.49778 7.89703C8.12444 7.55291 7.71556 7.53526 7.28889 7.79114C7.21778 7.50879 7.13778 7.23526 7.06667 6.95291H13.6356C14.5511 6.95291 15.1467 6.37055 15.1467 5.47055V1.87938C15.1467 1.35879 14.9422 0.952908 14.5867 0.697026ZM7.21778 9.61761C7.25333 9.74997 7.31555 9.85585 7.45778 9.88232C7.67111 9.91761 7.83111 9.73232 7.76889 9.50291C7.68889 9.21173 7.60889 8.92938 7.53778 8.64702C7.52 8.55879 7.52 8.46173 7.53778 8.3735C7.57333 8.24997 7.71555 8.16173 7.84889 8.16173C7.90222 8.16173 7.95555 8.17938 8 8.20585C8.04444 8.23232 8.08 8.26761 8.11555 8.31173C8.14222 8.3382 8.15111 8.3735 8.16889 8.40879C8.24 8.68232 8.31111 8.95585 8.39111 9.22938C8.4 9.2735 8.40889 9.32644 8.42667 9.37056C8.48 9.52056 8.62222 9.59997 8.76444 9.55585C8.91556 9.51173 8.99555 9.37938 8.96 9.22056C8.90667 9.00879 8.84444 8.80585 8.8 8.59408C8.75555 8.41761 8.85333 8.26761 9.02222 8.21467C9.12 8.17938 9.21778 8.19703 9.29778 8.24997C9.32444 8.26761 9.35111 8.28526 9.36889 8.32056C9.39556 8.3382 9.41333 8.3735 9.42222 8.39997C9.44889 8.44408 9.45778 8.50585 9.47555 8.55879C9.52 8.72644 9.56444 8.89408 9.61778 9.06173C9.63555 9.11467 9.66222 9.16761 9.70667 9.19408C9.75111 9.22056 9.80444 9.2382 9.86667 9.24703C9.98222 9.25585 10.08 9.21173 10.1244 9.09703C10.1511 9.03526 10.1422 8.94703 10.1422 8.87644C10.1333 8.80585 10.0978 8.73526 10.0889 8.6735C10.0444 8.47055 10.1422 8.31173 10.3289 8.26761C10.5067 8.21467 10.6756 8.31173 10.7289 8.50585C10.9244 9.17644 11.1111 9.8382 11.2889 10.5088C11.3511 10.7294 11.3689 10.9676 11.4044 11.197C11.3778 12.6617 10.2667 13.8882 8.80889 14.0117C7.36889 14.1353 6.27555 13.5617 5.53778 12.3441C5.24444 11.8676 4.96 11.3823 4.67555 10.897C4.55111 10.6853 4.60444 10.447 4.79111 10.3058C4.96889 10.1647 5.20889 10.1823 5.38667 10.35C5.43111 10.3853 5.47555 10.4294 5.52 10.4735C5.80444 10.7558 6.08 11.0294 6.37333 11.3206C6.40889 11.347 6.43555 11.3735 6.47111 11.4C6.54222 11.4353 6.61333 11.4353 6.69333 11.4088C6.8 11.3647 6.86222 11.2764 6.87111 11.1617C6.87111 11.1 6.85333 11.0382 6.83555 10.9764C6.48 9.60879 6.11555 8.24114 5.76 6.8735C5.74222 6.78526 5.73333 6.69703 5.76 6.61761C5.79555 6.47644 5.92889 6.3882 6.07111 6.3882C6.23111 6.3882 6.35555 6.48526 6.40889 6.66173C6.51555 7.05879 6.63111 7.46467 6.73778 7.87056C6.89778 8.45291 7.05778 9.03526 7.21778 9.61761Z" fill="white"/>
<path d="M10.8711 4.8176V3.7676H10.8977C10.8977 3.7676 10.9422 3.83818 10.96 3.8823C11.1288 4.19995 11.2888 4.5176 11.4577 4.83524C11.5466 5.00289 11.6711 5.06466 11.8222 5.02936C11.9555 4.99407 12.0444 4.87054 12.0444 4.69407V2.61171C12.0444 2.42642 11.9377 2.29407 11.7777 2.29407C11.6088 2.29407 11.4933 2.4176 11.4933 2.61171V3.52936C11.4933 3.52936 11.4844 3.59113 11.4755 3.65289C11.44 3.59113 11.4133 3.54701 11.3955 3.50289C11.2177 3.15877 11.0311 2.80583 10.8444 2.46171C10.7822 2.32936 10.6666 2.27642 10.5422 2.30289C10.4088 2.32936 10.32 2.43524 10.32 2.5676C10.3111 3.30877 10.3111 4.05877 10.32 4.79995C10.32 4.94995 10.4355 5.05583 10.5866 5.06466C10.7288 5.06466 10.8533 4.9676 10.8711 4.8176Z" fill="white"/>
<path d="M2.79111 2.31173C2.60444 2.27644 2.40888 2.29408 2.22222 2.29408C2.07999 2.30291 1.97333 2.41761 1.97333 2.56761V4.78232C1.97333 4.94997 2.08888 5.05585 2.25777 5.06467C2.45333 5.06467 2.64888 5.06467 2.84444 5.05585C3.35999 5.02938 3.74222 4.54408 3.65333 4.04114C3.61777 3.82938 3.50222 3.65291 3.35111 3.50291C3.35999 3.47644 3.36888 3.45879 3.38666 3.43232C3.61777 2.9382 3.33333 2.39114 2.79111 2.31173ZM2.53333 2.86761C2.66666 2.84997 2.79999 2.84114 2.86222 2.96467C2.89777 3.02644 2.89777 3.14114 2.86222 3.20291C2.79999 3.34408 2.66666 3.33526 2.52444 3.31761V2.86761H2.53333ZM3.05777 4.35879C2.93333 4.55291 2.73777 4.50879 2.53333 4.50879V3.8735C2.71999 3.8735 2.91555 3.82056 3.04888 4.00585C3.12888 4.11173 3.13777 4.23526 3.05777 4.35879Z" fill="white"/>
<path d="M3.81329 3.14116C3.81329 3.32646 3.81329 3.50293 3.81329 3.68822V4.22646C3.83107 4.67646 4.19552 5.04705 4.63996 5.07352C5.11996 5.09116 5.53774 4.77352 5.58218 4.31469C5.60885 3.89999 5.60885 3.47646 5.58218 3.07058C5.54663 2.61175 5.12885 2.28528 4.67552 2.30293C4.21329 2.32058 3.83996 2.68234 3.82218 3.14116H3.81329ZM5.03107 3.21175C5.03107 3.37058 5.03107 3.5294 5.03107 3.6794C5.03107 3.83822 5.03107 3.98822 5.03107 4.13822C5.03107 4.36763 4.88885 4.50881 4.69329 4.50881C4.49774 4.50881 4.3644 4.35881 4.3644 4.13822V3.21175C4.3644 2.99116 4.50663 2.84999 4.69329 2.84999C4.87996 2.84999 5.03107 2.99116 5.03107 3.21175Z" fill="white"/>
<path d="M5.76001 3.14116V4.21763C5.77779 4.66763 6.15112 5.03822 6.58668 5.06469C7.06668 5.08234 7.48445 4.77352 7.52001 4.31469C7.55556 3.89116 7.55556 3.46763 7.52001 3.0441C7.48445 2.5941 7.0489 2.26763 6.60445 2.2941C6.14223 2.32057 5.77779 2.69116 5.76001 3.14116ZM6.98668 3.21175V4.13822C6.97779 4.36763 6.84445 4.50881 6.64001 4.50881C6.43557 4.50881 6.32001 4.35881 6.32001 4.13822V3.21175C6.32001 2.99116 6.46223 2.84999 6.6489 2.84999C6.83557 2.84999 6.97779 2.99999 6.98668 3.21175Z" fill="white"/>
<path d="M13.0844 2.8677C13.2533 2.8324 13.3956 2.91181 13.4844 3.09711C13.5556 3.26476 13.6978 3.33534 13.8489 3.27358C14 3.21181 14.0622 3.06181 13.9911 2.88534C13.8578 2.50593 13.4489 2.25887 13.0578 2.31181C12.6311 2.36476 12.3022 2.6824 12.2667 3.09711C12.2489 3.29123 12.2578 3.49417 12.2578 3.68829H12.2667C12.2667 3.89123 12.2489 4.10299 12.2667 4.29711C12.3022 4.70299 12.6578 5.02946 13.0578 5.07358C13.4844 5.10887 13.8844 4.85299 14 4.46476C14.0356 4.3324 14.0178 4.19123 14.0267 4.05005C14.0622 3.52064 13.8844 3.52946 13.5022 3.54711C13.3511 3.54711 13.2444 3.63534 13.2178 3.75887C13.1911 3.90005 13.2533 4.00593 13.3867 4.07652C13.4222 4.09417 13.4578 4.11181 13.4667 4.13828C13.4844 4.27064 13.4667 4.38534 13.3422 4.46476C13.1111 4.61476 12.8267 4.45593 12.8178 4.17358C12.8 3.85593 12.8178 3.54711 12.8178 3.22946C12.8178 3.02652 12.9244 2.90299 13.0933 2.8677H13.0844Z" fill="white"/>
<path d="M8.01782 2.30298C7.85782 2.30298 7.74226 2.42651 7.74226 2.60298C7.73337 3.32651 7.73337 4.05004 7.74226 4.77357C7.74226 4.82651 7.75115 4.87945 7.76893 4.92357C7.83115 5.03827 7.92893 5.09121 8.06226 5.07357C8.1956 5.0471 8.2756 4.96768 8.28449 4.82651C8.29337 4.67651 8.29337 4.52651 8.29337 4.37651C8.3556 4.40298 8.39115 4.43827 8.41782 4.48239C8.55115 4.63239 8.66671 4.79121 8.80004 4.94121C8.85337 4.99416 8.92449 5.0471 8.9956 5.06474C9.11115 5.10004 9.21782 5.0471 9.28004 4.94121C9.35115 4.82651 9.33337 4.7118 9.24449 4.60592C8.98671 4.28827 8.72004 3.97063 8.45337 3.64416C8.68449 3.3618 8.9156 3.0971 9.14671 2.82357C9.27115 2.67357 9.27115 2.4971 9.14671 2.39121C9.01338 2.28533 8.86226 2.3118 8.72893 2.47063C8.5956 2.62063 8.46226 2.77063 8.33782 2.92063H8.30226C8.30226 2.81474 8.31115 2.70886 8.30226 2.60298C8.29337 2.42651 8.18671 2.30298 8.02671 2.30298H8.01782Z" fill="white"/>
<path d="M10.0355 4.73827V2.63827C10.0355 2.43533 9.92888 2.30298 9.75999 2.30298C9.5911 2.3118 9.48444 2.43533 9.48444 2.63827V4.73827C9.48444 4.95004 9.5911 5.07357 9.76888 5.07357C9.94666 5.07357 10.0355 4.95004 10.0355 4.73827Z" fill="white"/>
<path d="M7.99109 0.970521C8.15109 0.970521 8.26665 0.855815 8.27554 0.696992C8.26665 0.538168 8.15109 0.423462 8.00887 0.423462H7.99109C7.83998 0.423462 7.72443 0.546992 7.72443 0.696992C7.72443 0.846992 7.84887 0.970521 7.99109 0.970521Z" fill="white"/>
</g>
<defs>
<clipPath id="clip0_74_150">
<rect width="16" height="15" fill="white"/>
</clipPath>
</defs>
</svg>
