<svg width="48" height="48" viewBox="0 0 48 48" fill="none" xmlns="http://www.w3.org/2000/svg">
<path d="M24 1.36435e-05V20.57H0.25C0.978771 15.5328 3.29008 10.8576 6.85 7.22001C7.65352 6.39158 8.51939 5.62601 9.44 4.93001C13.6177 1.72748 18.7361 -0.00561014 24 1.36435e-05Z" fill="#142359"/>
<path d="M40.79 6.86H24V4.76696e-06C30.2798 -0.00395544 36.3097 2.45972 40.79 6.86Z" fill="#BF2121"/>
<path d="M45.68 13.71H24V6.85999H40.79C42.813 8.83553 44.4688 11.1549 45.68 13.71Z" fill="white"/>
<path d="M47.75 20.57H24V13.71H45.68C46.7176 15.877 47.4158 18.1907 47.75 20.57Z" fill="#BF2121"/>
<path d="M48 24.0001C48.0032 25.1481 47.9196 26.2947 47.75 27.4301H0.250051C-0.0833504 25.1556 -0.0833504 22.8446 0.250051 20.5701H47.75C47.9196 21.7055 48.0032 22.8521 48 24.0001Z" fill="white"/>
<path d="M47.75 27.4301C47.4158 29.8093 46.7176 32.123 45.68 34.2901H2.32C1.28235 32.123 0.584189 29.8093 0.25 27.4301H47.75Z" fill="#BF2121"/>
<path d="M40.7909 41.14C36.3055 45.5315 30.2782 47.9908 24.0009 47.9908C17.7237 47.9908 11.6963 45.5315 7.21094 41.14H40.7909Z" fill="#BF2121"/>
<path d="M45.6803 34.29C44.4691 36.8451 42.8133 39.1645 40.7903 41.14H7.21031C5.1873 39.1645 3.53155 36.8451 2.32031 34.29H45.6803Z" fill="white"/>
<path d="M16.7117 2.79004L17.4117 4.93004H19.6617L17.8417 6.25004L18.5417 8.39004L16.7117 7.07004L14.8917 8.39004L15.5917 6.25004L13.7617 4.93004H16.0217L16.7117 2.79004Z" fill="white"/>
<path d="M16.7117 11.39L17.4117 13.53H19.6617L17.8417 14.86L18.5417 17L16.7117 15.68L14.8917 17L15.5917 14.86L13.7617 13.53H16.0217L16.7117 11.39Z" fill="white"/>
<path d="M8.28984 11.39L8.97984 13.53H11.2398L9.40984 14.86L10.1098 17L8.28984 15.68L6.45984 17L7.15984 14.86L5.33984 13.53H7.58984L8.28984 11.39Z" fill="white"/>
<path d="M9.40875 6.25005L10.1088 8.39005L8.28875 7.07005L6.46875 8.39005L6.84875 7.22005C7.65227 6.39162 8.51814 5.62605 9.43875 4.93005H11.2387L9.40875 6.25005Z" fill="white"/>
</svg>
