<svg xmlns="http://www.w3.org/2000/svg" width="11.88" height="14.657" viewBox="0 0 11.88 14.657">
  <defs>
    <style>
      .cls-1 {
        fill: #fff;
        fill-rule: evenodd;
      }
    </style>
  </defs>
  <path class="cls-1" d="M1525.69,266.282a3.218,3.218,0,0,1-1.53-2.789,3.1,3.1,0,0,1,1.03-2.265,3.455,3.455,0,0,1,4.82.105,3.182,3.182,0,0,1-.6,4.947c0.19,0.074.37,0.136,0.55,0.217a5.63,5.63,0,0,1,3.46,4.548,6.182,6.182,0,0,1,0,1.92,2.5,2.5,0,0,1-2.41,1.976c-0.16,0-.33.005-0.5,0a0.4,0.4,0,0,1-.42-0.413,0.41,0.41,0,0,1,.42-0.4,4.937,4.937,0,0,0,.81-0.053,1.59,1.59,0,0,0,1.29-1.457,5.936,5.936,0,0,0-.28-2.543,4.883,4.883,0,0,0-4.26-3.23,5.008,5.008,0,0,0-5.49,3.828,5.753,5.753,0,0,0-.07,2.148,1.631,1.631,0,0,0,1.64,1.307c1.54,0,3.08,0,4.62,0a0.425,0.425,0,0,1,.45.311,0.407,0.407,0,0,1-.42.5c-0.61,0-1.22,0-1.84,0-0.93,0-1.87.006-2.81,0a2.5,2.5,0,0,1-2.47-1.908c-0.02-.114-0.04-0.231-0.05-0.347a7.325,7.325,0,0,1,.28-2.753,5.777,5.777,0,0,1,3.63-3.6c0.05-.016.09-0.034,0.15-0.057h0Zm1.86-.287a2.442,2.442,0,1,0-2.54-2.452A2.5,2.5,0,0,0,1527.55,266Z" transform="translate(-1521.62 -260.281)"/>
</svg>
